PathFileType	4	(X/Y/Z)	C:\My Captures\DataSMARTClinic\0056~004 ID\0056~aa~STRATO3\Standing_ID_04_STRATO.trc
DataRate	CameraRate	NumFrames	NumMarkers	Units	OrigDataRate	OrigDataStartFrame	OrigNumFrames
250.00	250.00	10	22	mm	250.00	648	2621
Frame#	Time	r.should			l.should			c7			r.asis			l.asis			sacrum			r.bar1			l.bar1			r.knee1			l.knee1			r.bar2			r.mall			l.bar2			l.mall			r.met			r.heel			l.heel			l.met			r.mallm			l.mallm			r.kneem			l.kneem			
		X1	Y1	Z1	X2	Y2	Z2	X3	Y3	Z3	X4	Y4	Z4	X5	Y5	Z5	X6	Y6	Z6	X7	Y7	Z7	X8	Y8	Z8	X9	Y9	Z9	X10	Y10	Z10	X11	Y11	Z11	X12	Y12	Z12	X13	Y13	Z13	X14	Y14	Z14	X15	Y15	Z15	X16	Y16	Z16	X17	Y17	Z17	X18	Y18	Z18	X19	Y19	Z19	X20	Y20	Z20	X21	Y21	Z21	X22	Y22	Z22	

647	2.588000	868.617415	1255.853057	362.499505	855.719090	1260.737538	80.819048	758.239746	1315.885305	212.548435	973.632693	882.584214	344.222516	976.421237	875.565112	106.341809	731.889009	907.490849	210.409731	866.413832	801.620007	427.752048	883.516848	771.354258	26.660124	901.881814	463.661462	410.533369	882.791579	471.958935	80.056906	879.616380	402.154803	417.535692	830.041289	70.903085	438.182831	866.004348	397.919297	79.391286	854.795098	71.882442	92.107907	969.423890	43.403387	433.856130	777.830482	53.615212	390.867144	797.334433	54.505359	123.308606	985.282183	43.884404	114.798769	857.719183	69.466993	361.587971	866.452217	72.644696	169.019580	895.797968	448.185503	262.750924	855.266869	446.909934	223.093122	
648	2.592000	868.623555	1255.855322	362.489700	855.732620	1260.728359	80.814116	758.276105	1315.887570	212.533057	973.630190	882.570267	344.228208	976.426125	875.558197	106.348298	731.901884	907.493353	210.406512	866.485834	801.680684	427.765965	883.514404	771.349192	26.655018	901.881218	463.663071	410.528392	882.785141	471.953779	80.055378	879.610956	402.154773	417.535096	830.031276	70.906021	438.176632	866.008699	397.915184	79.386897	854.516208	71.950167	91.995753	969.424367	43.405849	433.855057	777.847528	53.606156	390.863210	797.181606	55.382028	124.355234	985.264361	43.878719	114.805542	857.698381	69.441728	361.598521	866.454720	72.647475	169.019356	895.805717	448.193491	262.758464	855.268955	446.909726	223.090246	
649	2.596000	868.629336	1255.838633	362.487525	855.741978	1260.723233	80.805331	758.300841	1315.903425	212.523729	973.623931	882.562160	344.232947	976.448298	875.556946	106.337383	731.896698	907.498717	210.405618	866.450191	801.695168	427.800596	883.512139	771.349490	26.656045	901.866913	463.665843	410.531968	882.786214	471.951932	80.050230	879.599273	402.150571	417.536646	830.041647	70.913963	438.172698	866.013408	397.919506	79.384491	854.187191	72.012186	91.852240	969.416261	43.403663	433.850825	777.851760	53.598240	390.861601	797.018290	56.480490	125.693515	985.256553	43.873262	114.797831	857.679427	69.433875	361.597389	866.446614	72.653376	169.020399	895.831048	448.195398	262.757391	855.267525	446.920902	223.084360	
650	2.600000	868.622959	1255.837440	362.490803	855.754614	1260.716915	80.798186	758.328557	1315.904975	212.519929	973.623812	882.568359	344.234556	976.467252	875.558436	106.326334	731.895685	907.499671	210.397735	866.391897	801.678896	427.805215	883.505642	771.345735	26.660632	901.859105	463.672787	410.528839	882.787645	471.950740	80.043375	879.598200	402.150840	417.538643	830.036461	70.916981	438.174784	866.019070	397.918522	79.381049	854.380846	71.965985	91.950879	969.399571	43.406297	433.853805	777.867138	53.606607	390.845895	797.112167	55.859014	124.949083	985.267520	43.886669	114.798494	857.677579	69.448479	361.603558	866.440952	72.656117	169.021413	895.816565	448.192418	262.747616	855.267525	446.923137	223.085076	
651	2.604000	868.645191	1255.840182	362.479866	855.777621	1260.708094	80.793604	758.334994	1315.906286	212.510273	973.632455	882.572889	344.229758	976.500392	875.559509	106.322967	731.891394	907.507658	210.381627	866.369486	801.662445	427.792817	883.531690	771.351099	26.651317	901.864827	463.668525	410.517544	882.788122	471.949726	80.038734	879.607260	402.162820	417.527348	830.016971	70.911892	438.169539	866.024613	397.918254	79.379708	853.825033	72.089069	91.717504	969.400406	43.412704	433.855146	777.886510	53.605631	390.829593	796.841264	57.479762	126.919180	985.257745	43.890715	114.803076	857.669413	69.451511	361.602753	866.431832	72.649062	169.012308	895.811915	448.196530	262.745202	855.266094	446.920693	223.072916	
652	2.608000	868.693650	1255.844116	362.457216	855.804086	1260.700464	80.793217	758.346856	1315.910459	212.503284	973.634839	882.566273	344.218701	976.503849	875.551283	106.333494	731.895089	907.510281	210.373998	866.297722	801.600814	427.809924	883.550465	771.352053	26.644688	901.874542	463.676006	410.515964	882.797837	471.950084	80.042854	879.615426	402.167737	417.527229	830.008030	70.915490	438.164800	866.028845	397.917718	79.379968	853.680134	72.118118	91.642976	969.407499	43.415986	433.839768	777.893901	53.600270	390.823841	796.778738	57.887014	127.406180	985.255718	43.892115	114.800036	857.677937	69.444872	361.616135	866.439700	72.653852	169.011369	895.813227	448.198885	262.742639	855.267167	446.914792	223.070487	
653	2.612000	868.708014	1255.836487	362.466335	855.818987	1260.689259	80.781102	758.375704	1315.911531	212.507963	973.653078	882.570028	344.207823	976.499796	875.538468	106.312037	731.911242	907.510638	210.365653	866.320252	801.593423	427.806973	883.564532	771.364152	26.641805	901.873648	463.683605	410.514414	882.796645	471.953660	80.045700	879.607975	402.161688	417.519152	830.026269	70.923723	438.168198	866.026878	397.916377	79.374619	853.675008	72.146118	91.618158	969.410062	43.422125	433.839262	777.875006	53.605810	390.826404	796.758115	57.993792	127.532497	985.254347	43.897755	114.796817	857.700348	69.449343	361.598760	866.451740	72.665073	169.015333	895.834327	448.186606	262.752771	855.271578	446.915805	223.059401	
654	2.616000	868.739247	1255.820155	362.464249	855.829895	1260.677218	80.767512	758.421540	1315.912962	212.495789	973.671317	882.575929	344.212532	976.503134	875.529528	106.302291	731.921732	907.508850	210.356653	866.365969	801.630616	427.787036	883.573651	771.366954	26.640860	901.881933	463.686198	410.514474	882.780790	471.951991	80.048174	879.601240	402.176112	417.507112	830.034196	70.926875	438.166320	866.029501	397.912771	79.370119	853.663087	72.135881	91.607459	969.417214	43.428674	433.850467	777.859449	53.599976	390.833348	796.770275	58.023393	127.560467	985.265374	43.898195	114.793688	857.711911	69.457263	361.602634	866.447806	72.669789	169.012636	895.817637	448.166847	262.758732	855.273187	446.922928	223.057732	
655	2.620000	868.784487	1255.816698	362.446964	855.846167	1260.663748	80.767684	758.440912	1315.914989	212.487355	973.672986	882.575870	344.210684	976.499736	875.521839	106.318474	731.945455	907.508850	210.348576	866.366744	801.637530	427.789479	883.574605	771.352291	26.633836	901.895046	463.693261	410.511434	882.790148	471.954435	80.051497	879.610538	402.190268	417.504013	830.028594	70.930429	438.166201	866.035521	397.912681	79.370379	853.947043	72.071359	91.736846	969.423234	43.437786	433.840603	777.848005	53.613275	390.832871	796.931148	57.134502	126.475200	985.272765	43.893415	114.796668	857.674062	69.444157	361.614794	866.456509	72.672620	169.008419	895.827949	448.158801	262.744069	855.272174	446.930349	223.068357	
656	2.624000	868.819594	1255.823970	362.436652	855.875194	1260.656118	80.767639	758.465111	1315.915346	212.494105	973.676622	882.583976	344.217479	976.517141	875.513673	106.312260	731.949329	907.515645	210.340798	866.339087	801.593304	427.814066	883.569360	771.344721	26.637167	901.885867	463.691354	410.501480	882.790327	471.951902	80.043808	879.601598	402.193844	417.502940	830.032885	70.925876	438.166291	866.017699	397.908270	79.375528	854.299545	71.975999	91.906130	969.423056	43.433212	433.830500	777.853966	53.618025	390.830964	797.100961	56.031857	125.120848	985.271335	43.888845	114.797682	857.679009	69.448277	361.606121	866.457283	72.673596	168.999150	895.844340	448.163569	262.729108	855.261207	446.924537	223.074779	
